# xmcd
#
# Track frame offsets:
#	150
#	9907
#	19255
#	29633
#	37257
#	46564
#	56178
#	67808
#	77245
#	85556
#	94248
#
# Disc length: 1409 seconds
#
# Revision: 1
# Processed by: cddbd v1.4PL0 Copyright (c) Steve Scherf et al.
# Submitted via: audiograbber 1.82.02
#
DISCID=82057f0b
DTITLE=Rusty and Doug Kershaw - Oh Boy Classics Presents
DYEAR=1900
DGENRE=Country
TTITLE0=Cajun Joe (Bully Of The Bayou)
TTITLE1=Diggy Liggy Lo
TTITLE2=Hey Mae
TTITLE3=I Like You Like This
TTITLE4=(Our Own) Jole Blon
TTITLE5=Look Around
TTITLE6=Louisiana Man
TTITLE7=The Love I Want
TTITLE8=Sweet Thing (Tell Me That You Love Me)
TTITLE9=Why Don't You Love Me
TTITLE10=Your Crazy Crazy Heart
EXTD=
EXTT0=
EXTT1=
EXTT2=
EXTT3=
EXTT4=
EXTT5=
EXTT6=
EXTT7=
EXTT8=
EXTT9=
EXTT10=
PLAYORDER=
